# Blender 3.6.5
# www.blender.org
mtllib pistol.mtl
o PistolBarrel
v -13.785829 10.886818 1.000000
v -13.785829 13.953937 1.000000
v -13.785829 10.886818 -1.000000
v -13.785829 13.953937 -1.000000
v 10.732113 10.886818 1.000000
v 9.649527 13.953937 1.000000
v 10.732113 10.886818 -1.000000
v 9.649527 13.953937 -1.000000
v -13.785829 12.420377 1.000000
v -13.785829 12.420377 -1.000000
v 10.460841 12.843672 -1.000000
v 10.460841 12.843672 1.000000
vn -1.0000 -0.0000 -0.0000
vn -0.0000 -0.0000 -1.0000
vn 0.8074 0.5900 -0.0000
vn -0.0000 -0.0000 1.0000
vn -0.0000 -1.0000 -0.0000
vn -0.0000 1.0000 -0.0000
vn 0.9905 0.1373 -0.0000
vt 0.500000 0.000000
vt 0.625000 0.000000
vt 0.625000 0.250000
vt 0.500000 0.250000
vt 0.625000 0.500000
vt 0.500000 0.500000
vt 0.625000 0.750000
vt 0.500000 0.750000
vt 0.625000 1.000000
vt 0.500000 1.000000
vt 0.125000 0.500000
vt 0.375000 0.500000
vt 0.375000 0.750000
vt 0.125000 0.750000
vt 0.875000 0.500000
vt 0.875000 0.750000
vt 0.375000 1.000000
vt 0.375000 0.250000
vt 0.375000 0.000000
s 0
f 9/1/1 2/2/1 4/3/1 10/4/1
f 10/4/2 4/3/2 8/5/2 11/6/2
f 11/6/3 8/5/3 6/7/3 12/8/3
f 12/8/4 6/7/4 2/9/4 9/10/4
f 3/11/5 7/12/5 5/13/5 1/14/5
f 8/5/6 4/15/6 2/16/6 6/7/6
f 5/13/4 12/8/4 9/10/4 1/17/4
f 7/12/7 11/6/7 12/8/7 5/13/7
f 3/18/2 10/4/2 11/6/2 7/12/2
f 1/19/1 9/1/1 10/4/1 3/18/1
o PistolBody
v -8.963245 9.079817 1.000000
v -8.963245 10.890078 1.000000
v -8.963245 9.079817 -1.000000
v -8.963245 10.890078 -1.000000
v 13.037617 8.891685 1.000000
v 10.733012 10.890078 1.000000
v 13.037617 8.891685 -1.000000
v 10.733012 10.890078 -1.000000
v -0.526401 8.707317 -0.313781
v 0.110019 10.890078 -1.000000
v -0.526401 8.707317 0.313780
v 0.110019 10.890078 1.000000
v 11.015209 8.538940 1.000000
v 11.015209 8.538940 -1.000000
v 1.731472 8.444875 -1.000000
v 1.731472 8.444875 1.000000
v 10.239169 8.045096 1.000000
v 10.239169 8.045096 -1.000000
v 2.366414 7.856966 -1.000000
v 2.366414 7.856966 1.000000
v 10.017260 7.208769 1.000000
v 10.017260 7.208769 -1.000000
v 2.507512 7.010376 -1.000000
v 2.507512 7.010376 1.000000
v 10.215652 6.257853 1.000000
v 10.215652 6.257853 -1.000000
v 2.507512 6.493016 -1.000000
v 2.507512 6.493016 1.000000
v 10.591915 5.858075 1.000000
v 10.591915 5.858075 -1.000000
v 2.719160 5.999173 -1.000000
v 2.719160 5.999173 1.000000
v 11.367953 5.011486 1.000000
v 11.367953 5.011486 -1.000000
v 3.730364 4.752806 -1.000000
v 3.730364 4.752806 1.000000
v 12.096962 3.059628 0.999999
v 12.096962 3.059628 -1.000001
v 4.694534 3.153693 -1.000001
v 4.694534 3.153693 0.999999
v -8.963245 9.984947 1.000000
v -8.963245 9.984947 -1.000000
v 13.061132 9.914398 -1.000000
v 13.061132 9.914398 1.000000
v 0.110019 9.984947 1.000000
v 0.110019 9.984947 -1.000000
v -8.963245 10.437512 1.000000
v -8.963245 10.437512 -1.000000
v 11.191582 10.378721 -1.000000
v 11.191582 10.378721 1.000000
v 0.110019 10.437512 1.000000
v 0.110019 10.437512 -1.000000
v 13.467684 -1.888665 0.999999
v 13.467684 -1.888665 -1.000001
v 5.994708 -1.865149 -1.000001
v 5.994708 -1.865149 0.999999
v 12.935180 0.338559 -1.000001
v 5.415170 0.409108 -1.000001
v 12.935180 0.338559 0.999999
v 5.415170 0.409108 0.999999
v 13.271981 -0.775052 -1.000001
v 13.271981 -0.775052 0.999999
v 5.704939 -0.728020 -1.000001
v 5.704939 -0.728020 0.999999
v 13.512423 -2.640738 0.999999
v 13.512423 -2.640738 -1.000001
v 6.039448 -2.593705 -1.000001
v 6.039448 -2.593705 0.999999
v 13.463244 -3.299263 0.999999
v 13.463244 -3.299263 -1.000001
v 5.990269 -3.275746 -1.000001
v 5.990269 -3.275746 0.999999
v 13.274595 -3.487468 0.999999
v 13.274595 -3.487468 -1.000001
v 5.872169 -3.440434 -1.000001
v 5.872169 -3.440434 0.999999
v 13.062356 -3.652080 0.999999
v 13.062356 -3.652080 -1.000001
v 5.659929 -3.628563 -1.000001
v 5.659929 -3.628563 0.999999
v -4.416670 8.673454 -0.313781
v -4.951499 10.890078 1.000000
v -4.951499 10.890078 -1.000000
v -4.416670 8.673454 0.313780
v -4.951499 9.984947 -1.000000
v -4.951499 9.984947 1.000000
v -4.951499 10.437512 -1.000000
v -4.951499 10.437512 1.000000
v -4.985363 9.079817 1.000000
v 0.177746 8.775044 1.000000
v 0.177746 8.775044 -1.000000
v -4.985363 9.079817 -1.000000
v -2.175894 8.131637 -0.313781
v -2.175894 8.131637 0.313780
v -4.053993 8.165501 -0.313781
v -4.053993 8.165501 0.313780
v -2.682729 7.484797 -0.313781
v -2.682729 7.484797 0.313780
v -3.708380 7.450934 -0.313781
v -3.708380 7.450934 0.313780
v -2.703246 6.806071 -0.313781
v -2.703246 6.806071 0.313780
v -3.588049 6.839934 -0.313781
v -3.588049 6.839934 0.313780
v -2.376830 6.125284 -0.313781
v -2.376830 6.125284 0.313780
v -3.537935 6.159147 -0.313781
v -3.537935 6.159147 0.313780
v -2.431387 4.840060 -0.313781
v -2.431387 4.840060 0.313780
v -3.727947 5.246422 -0.313781
v -3.727947 5.246422 0.313780
v -1.528894 5.467727 -0.313781
v -1.528894 5.467727 0.313780
v -1.583451 4.545175 -0.313781
v -1.583451 4.545175 0.313780
v 0.021467 5.204722 -0.313781
v 0.021467 5.204722 0.313780
v 0.000774 4.451488 -0.313781
v 0.000774 4.451488 0.313780
v 1.372174 5.336002 -0.313781
v 1.372174 5.336002 0.313780
v 1.419208 4.515040 -0.313781
v 1.419208 4.515040 0.313780
v 2.123628 5.731270 -0.313781
v 2.123628 5.731270 0.313780
v 2.475434 4.774854 -0.313781
v 2.475434 4.774854 0.313780
v 2.775671 6.409401 -0.313781
v 2.775671 6.409401 0.313780
v 3.703157 5.419122 -0.313781
v 3.703157 5.419122 0.313780
vn -1.0000 -0.0000 -0.0000
vn -0.0000 -0.0000 -1.0000
vn 0.7445 0.6676 -0.0000
vn -0.0000 -0.0000 1.0000
vn 0.1718 -0.9851 -0.0000
vn -0.0000 1.0000 -0.0000
vn -0.2079 -0.9782 -0.0000
vn -0.9864 -0.1644 -0.0000
vn 0.5369 -0.8437 -0.0000
vn -0.6794 -0.7338 -0.0000
vn 0.9666 -0.2565 -0.0000
vn 0.7282 0.6854 -0.0000
vn 0.9789 0.2042 -0.0000
vn -0.7766 -0.6300 -0.0000
vn -0.9191 -0.3939 -0.0000
vn 0.7372 0.6757 -0.0000
vn 0.9368 0.3499 -0.0000
vn -0.8564 -0.5163 -0.0000
vn 0.9997 -0.0230 -0.0000
vn 0.2410 0.9705 -0.0000
vn -0.9981 -0.0613 -0.0000
vn 0.9849 0.1731 -0.0000
vn -0.9690 -0.2469 -0.0000
vn -0.9672 -0.2540 -0.0000
vn 0.9557 0.2944 -0.0000
vn 0.9572 0.2895 -0.0000
vn -0.9974 0.0719 -0.0000
vn 0.9982 0.0594 -0.0000
vn 0.9972 -0.0745 -0.0000
vn 0.6129 -0.7902 -0.0000
vn 0.7063 -0.7079 -0.0000
vn -0.8126 0.5828 -0.0000
vn -0.0032 -1.0000 -0.0000
vn -0.6633 0.7483 -0.0000
vn -0.0000 -1.0000 -0.0000
vn -0.0282 -0.9440 0.3289
vn 0.0957 -0.9954 -0.0000
vn -0.0282 -0.9440 -0.3289
vn -0.5814 -0.8136 -0.0000
vn -0.9002 -0.4354 -0.0000
vn -0.8138 -0.5811 -0.0000
vn 0.3295 -0.9442 -0.0000
vn 0.7871 -0.6168 -0.0000
vn -0.9973 -0.0734 -0.0000
vn -0.9812 -0.1932 -0.0000
vn 0.9995 -0.0302 -0.0000
vn 0.6128 0.7902 -0.0000
vn 0.9017 0.4323 -0.0000
vn -0.2991 -0.9542 -0.0000
vn -0.9790 0.2038 -0.0000
vn -0.3285 -0.9445 -0.0000
vn -0.0590 -0.9983 -0.0000
vn 0.1673 0.9859 -0.0000
vn -0.0967 0.9953 -0.0000
vn 0.0448 -0.9990 -0.0000
vn -0.4655 0.8850 -0.0000
vn 0.2389 -0.9711 -0.0000
vn 0.7299 0.6836 -0.0000
vn 0.4647 -0.8855 -0.0000
vn -0.7208 0.6931 -0.0000
vt 0.562500 0.000000
vt 0.625000 0.000000
vt 0.625000 0.250000
vt 0.562500 0.250000
vt 0.562500 0.375000
vt 0.625000 0.375000
vt 0.625000 0.500000
vt 0.562500 0.500000
vt 0.625000 0.750000
vt 0.562500 0.750000
vt 0.562500 0.937500
vt 0.625000 0.937500
vt 0.625000 1.000000
vt 0.562500 1.000000
vt 0.375000 0.500000
vt 0.375000 0.750000
vt 0.812500 0.500000
vt 0.875000 0.500000
vt 0.875000 0.750000
vt 0.812500 0.750000
vt 0.750000 0.500000
vt 0.750000 0.750000
vt 0.238918 0.740605
vt 0.198583 0.740605
vt 0.625000 0.875000
vt 0.562500 0.875000
vt 0.562500 0.312500
vt 0.625000 0.312500
vt 0.375000 0.375000
vt 0.375000 0.875000
vt 0.250000 0.750000
vt 0.250000 0.500000
vt 0.375000 0.312500
vt 0.500000 0.312500
vt 0.500000 0.375000
vt 0.500000 0.750000
vt 0.500000 0.875000
vt 0.375000 0.937500
vt 0.500000 0.937500
vt 0.500000 1.000000
vt 0.375000 1.000000
vt 0.500000 0.500000
vt 0.375000 0.000000
vt 0.500000 0.000000
vt 0.500000 0.250000
vt 0.375000 0.250000
vt 0.375000 0.750000
vt 0.125000 0.500000
vt 0.187500 0.500000
vt 0.187500 0.750000
vt 0.125000 0.750000
vt 0.238918 0.509395
vt 0.198583 0.509395
s 0
f 59/20/8 14/21/8 16/22/8 60/23/8
f 64/24/9 22/25/9 20/26/9 61/27/9
f 61/27/10 20/26/10 18/28/10 62/29/10
f 100/30/11 94/31/11 14/32/11 59/33/11
f 19/34/12 17/35/12 25/35/12 26/34/12
f 95/36/13 16/37/13 14/38/13 94/39/13
f 20/26/13 22/40/13 24/41/13 18/28/13
f 23/42/11 96/43/11 108/43/11 106/42/11
f 62/29/11 18/28/11 24/44/11 63/45/11
f 99/46/9 95/47/9 22/25/9 64/24/9
f 27/48/9 26/34/9 30/34/9 31/48/9
f 103/48/9 19/34/9 26/34/9 27/48/9
f 17/35/11 102/49/11 28/49/11 25/35/11
f 102/50/14 103/51/14 27/51/14 28/50/14
f 32/50/15 31/51/15 35/51/15 36/50/15
f 26/34/16 25/35/16 29/35/16 30/34/16
f 28/50/17 27/51/17 31/51/17 32/50/17
f 25/35/11 28/49/11 32/49/11 29/35/11
f 35/48/9 34/34/9 38/34/9 39/48/9
f 29/35/11 32/49/11 36/49/11 33/35/11
f 31/48/9 30/34/9 34/34/9 35/48/9
f 30/34/18 29/35/18 33/35/18 34/34/18
f 38/34/19 37/35/19 41/35/19 42/34/19
f 34/34/20 33/35/20 37/35/20 38/34/20
f 36/50/8 35/51/8 39/51/8 40/50/8
f 33/35/11 36/49/11 40/49/11 37/35/11
f 44/50/21 43/51/21 47/51/21 48/50/21
f 40/50/22 39/51/22 43/51/22 44/50/22
f 37/35/11 40/49/11 44/49/11 41/35/11
f 39/48/9 38/34/9 42/34/9 43/48/9
f 47/48/9 46/34/9 50/34/9 51/48/9
f 41/35/11 44/49/11 48/49/11 45/35/11
f 43/48/9 42/34/9 46/34/9 47/48/9
f 42/34/23 41/35/23 45/35/23 46/34/23
f 75/48/9 73/34/9 66/34/9 67/48/9
f 46/34/24 45/35/24 49/35/24 50/34/24
f 48/50/25 47/51/25 51/51/25 52/50/25
f 45/35/11 48/49/11 52/49/11 49/35/11
f 104/52/9 97/53/9 58/54/9 103/48/9
f 17/35/11 56/55/11 57/56/11 102/49/11
f 101/57/11 98/58/11 53/59/11 13/60/11
f 19/34/26 55/61/26 56/55/26 17/35/26
f 103/48/9 58/54/9 55/61/9 19/34/9
f 13/62/8 53/63/8 54/64/8 15/65/8
f 97/53/9 99/46/9 64/24/9 58/54/9
f 56/55/11 62/29/11 63/45/11 57/56/11
f 98/58/11 100/30/11 59/33/11 53/59/11
f 55/61/27 61/27/27 62/29/27 56/55/27
f 58/54/9 64/24/9 61/27/9 55/61/9
f 53/63/8 59/20/8 60/23/8 54/64/8
f 68/50/28 67/51/28 79/51/28 80/50/28
f 73/34/29 74/66/29 65/35/29 66/34/29
f 76/50/30 75/51/30 67/51/30 68/50/30
f 74/66/11 76/49/11 68/49/11 65/35/11
f 49/35/11 52/49/11 72/49/11 71/35/11
f 52/50/31 51/51/31 70/51/31 72/50/31
f 50/34/32 49/35/32 71/35/32 69/34/32
f 51/48/9 50/34/9 69/34/9 70/48/9
f 71/35/11 72/49/11 76/49/11 74/66/11
f 72/50/30 70/51/30 75/51/30 76/50/30
f 69/34/33 71/35/33 74/66/33 73/34/33
f 70/48/9 69/34/9 73/34/9 75/48/9
f 80/50/34 79/51/34 83/51/34 84/50/34
f 65/35/11 68/49/11 80/49/11 77/35/11
f 67/48/9 66/34/9 78/34/9 79/48/9
f 66/34/35 65/35/35 77/35/35 78/34/35
f 83/48/9 82/34/9 86/34/9 87/48/9
f 77/35/11 80/49/11 84/49/11 81/35/11
f 79/48/9 78/34/9 82/34/9 83/48/9
f 78/34/36 77/35/36 81/35/36 82/34/36
f 86/34/37 85/35/37 89/35/37 90/34/37
f 82/34/38 81/35/38 85/35/38 86/34/38
f 84/50/39 83/51/39 87/51/39 88/50/39
f 81/35/11 84/49/11 88/49/11 85/35/11
f 91/51/40 90/34/40 89/35/40 92/50/40
f 88/50/41 87/51/41 91/51/41 92/50/41
f 85/35/11 88/49/11 92/49/11 89/35/11
f 87/48/9 86/34/9 90/34/9 91/48/9
f 57/56/11 63/45/11 100/30/11 98/58/11
f 54/64/9 60/23/9 99/46/9 97/53/9
f 102/49/11 57/56/11 98/58/11 101/57/11
f 15/65/9 54/64/9 97/53/9 104/52/9
f 60/23/9 16/22/9 95/47/9 99/46/9
f 15/67/42 104/68/42 101/69/42 13/70/42
f 22/40/13 95/36/13 94/39/13 24/41/13
f 63/45/11 24/44/11 94/31/11 100/30/11
f 96/43/43 23/42/43 102/50/43 101/69/43
f 23/42/44 21/71/44 103/51/44 102/50/44
f 21/71/45 93/72/45 104/68/45 103/51/45
f 93/72/46 96/43/46 101/69/46 104/68/46
f 108/43/47 107/72/47 111/72/47 112/43/47
f 96/43/48 93/72/48 107/72/48 108/43/48
f 21/71/49 23/42/49 106/42/49 105/71/49
f 93/72/9 21/71/9 105/71/9 107/72/9
f 111/72/9 109/71/9 113/71/9 115/72/9
f 105/71/50 106/42/50 110/42/50 109/71/50
f 107/72/9 105/71/9 109/71/9 111/72/9
f 106/42/11 108/43/11 112/43/11 110/42/11
f 116/43/51 115/72/51 119/72/51 120/43/51
f 110/42/11 112/43/11 116/43/11 114/42/11
f 112/43/52 111/72/52 115/72/52 116/43/52
f 109/71/53 110/42/53 114/42/53 113/71/53
f 117/71/54 118/42/54 126/42/54 125/71/54
f 113/71/55 114/42/55 118/42/55 117/71/55
f 115/72/9 113/71/9 117/71/9 119/72/9
f 114/42/11 116/43/11 120/43/11 118/42/11
f 123/72/56 121/71/56 122/42/56 124/43/56
f 119/72/9 117/71/9 121/71/9 123/72/9
f 118/42/11 120/43/11 124/43/11 122/42/11
f 120/43/57 119/72/57 123/72/57 124/43/57
f 127/71/9 125/71/9 129/71/9 131/71/9
f 118/42/11 122/42/11 128/42/11 126/42/11
f 121/71/9 117/71/9 125/71/9 127/71/9
f 122/42/58 121/71/58 127/71/58 128/42/58
f 130/42/11 132/42/11 136/42/11 134/42/11
f 128/42/59 127/71/59 131/71/59 132/42/59
f 126/42/11 128/42/11 132/42/11 130/42/11
f 125/71/60 126/42/60 130/42/60 129/71/60
f 134/42/11 136/42/11 140/42/11 138/42/11
f 129/71/61 130/42/61 134/42/61 133/71/61
f 131/71/9 129/71/9 133/71/9 135/71/9
f 132/42/62 131/71/62 135/71/62 136/42/62
f 139/71/9 137/71/9 141/71/9 143/71/9
f 133/71/63 134/42/63 138/42/63 137/71/63
f 135/71/9 133/71/9 137/71/9 139/71/9
f 136/42/64 135/71/64 139/71/64 140/42/64
f 141/71/65 142/42/65 144/42/65 143/71/65
f 140/42/66 139/71/66 143/71/66 144/42/66
f 138/42/11 140/42/11 144/42/11 142/42/11
f 137/71/67 138/42/67 142/42/67 141/71/67
o PistolTrigger
v -0.364005 8.317985 0.150000
v -0.350396 8.916257 0.150000
v -0.364005 8.317985 -0.150000
v -0.350396 8.916257 -0.150000
v 1.009981 8.481293 0.150000
v 1.009981 8.793776 0.150000
v 1.009981 8.481293 -0.150000
v 1.009981 8.793776 -0.150000
v -0.232527 8.116536 0.150000
v -0.232527 8.116536 -0.150000
v 0.923715 8.252626 0.150000
v 0.923715 8.252626 -0.150000
v -0.126338 7.908087 0.150000
v -0.126338 7.908087 -0.150000
v 0.526370 7.989741 0.150000
v 0.526370 7.989741 -0.150000
v -0.067818 7.650148 0.150000
v -0.067818 7.650148 -0.150000
v 0.538949 7.731802 0.150000
v 0.538949 7.731802 -0.150000
v -0.032623 7.440883 0.150000
v -0.032623 7.440883 -0.150000
v 0.521640 7.496285 0.150000
v 0.521640 7.496285 -0.150000
v -0.012366 7.272435 0.150000
v -0.012366 7.272435 -0.150000
v 0.509082 7.268770 0.150000
v 0.509082 7.268770 -0.150000
v -0.033351 7.087988 0.150000
v -0.033351 7.087988 -0.150000
v 0.468408 7.071198 0.150000
v 0.468408 7.071198 -0.150000
v -0.112016 6.901147 0.150000
v -0.112016 6.901147 -0.150000
v 0.429121 6.871231 0.150000
v 0.429121 6.871231 -0.150000
v -0.215290 6.727906 0.150000
v -0.215290 6.727906 -0.150000
v 0.299596 6.665174 0.150000
v 0.299596 6.665174 -0.150000
v -0.370895 6.541210 0.150000
v -0.370895 6.541210 -0.150000
v 0.157117 6.458790 0.150000
v 0.157117 6.458790 -0.150000
v -0.549409 6.333286 0.150000
v -0.549409 6.333286 -0.150000
v -0.100153 6.218050 0.150000
v -0.100153 6.218050 -0.150000
v -0.758034 6.192127 0.150000
v -0.758034 6.192127 -0.150000
v -0.380971 6.004699 0.150000
v -0.380971 6.004699 -0.150000
v -0.895311 6.139558 0.150000
v -0.895311 6.139558 -0.150000
v -0.656071 5.866811 0.150000
v -0.656071 5.866811 -0.150000
v -0.982535 6.114707 0.150000
v -0.982535 6.114707 -0.150000
v -0.848302 5.796019 0.150000
v -0.848302 5.796019 -0.150000
v -1.106391 6.094413 0.150000
v -1.106391 6.094413 -0.150000
v -1.064040 5.742910 0.150000
v -1.064040 5.742910 -0.150000
v -1.249967 6.090952 0.150000
v -1.249967 6.090952 -0.150000
v -1.273246 5.765702 0.150000
v -1.273246 5.765702 -0.150000
v -1.365873 6.133443 0.150000
v -1.365873 6.133443 -0.150000
v -1.566353 5.827881 0.150000
v -1.566353 5.827881 -0.150000
vn -0.9997 0.0227 -0.0000
vn -0.0000 -0.0000 -1.0000
vn 1.0000 -0.0000 -0.0000
vn -0.0000 -0.0000 1.0000
vn 0.0897 0.9960 -0.0000
vn -0.8374 -0.5466 -0.0000
vn 0.9356 -0.3530 -0.0000
vn 0.5518 -0.8340 -0.0000
vn -0.8910 -0.4539 -0.0000
vn 0.9973 -0.0733 -0.0000
vn 0.9988 0.0487 -0.0000
vn -0.9752 -0.2213 -0.0000
vn -0.9862 -0.1659 -0.0000
vn 0.9795 -0.2016 -0.0000
vn 0.9985 -0.0551 -0.0000
vn -0.9928 -0.1194 -0.0000
vn 0.9812 -0.1928 -0.0000
vn -0.9936 0.1130 -0.0000
vn -0.9216 0.3880 -0.0000
vn 0.8229 -0.5681 -0.0000
vn 0.8466 -0.5322 -0.0000
vn -0.8590 0.5120 -0.0000
vn -0.7587 0.6514 -0.0000
vn -0.7682 0.6402 -0.0000
vn 0.6833 -0.7302 -0.0000
vn 0.4481 -0.8940 -0.0000
vn 0.6050 -0.7963 -0.0000
vn -0.5604 0.8282 -0.0000
vn -0.3576 0.9339 -0.0000
vn 0.3456 -0.9384 -0.0000
vn -0.2740 0.9617 -0.0000
vn -0.1083 -0.9941 -0.0000
vn 0.2390 -0.9710 -0.0000
vn -0.1617 0.9868 -0.0000
vn -0.0241 0.9997 -0.0000
vn -0.8361 0.5486 -0.0000
vn -0.2075 -0.9782 -0.0000
vn 0.3442 0.9389 -0.0000
vt 0.375000 0.000000
vt 0.625000 0.000000
vt 0.625000 0.250000
vt 0.375000 0.250000
vt 0.625000 0.500000
vt 0.375000 0.500000
vt 0.625000 0.750000
vt 0.375000 0.750000
vt 0.625000 1.000000
vt 0.375000 1.000000
vt 0.875000 0.500000
vt 0.875000 0.750000
vt 0.125000 0.500000
vt 0.125000 0.750000
s 0
f 145/73/68 146/74/68 148/75/68 147/76/68
f 147/76/69 148/75/69 152/77/69 151/78/69
f 151/78/70 152/77/70 150/79/70 149/80/70
f 149/80/71 150/79/71 146/81/71 145/82/71
f 149/80/71 145/82/71 153/82/71 155/80/71
f 152/77/72 148/83/72 146/84/72 150/79/72
f 155/80/71 153/82/71 157/82/71 159/80/71
f 147/76/69 151/78/69 156/78/69 154/76/69
f 145/73/73 147/76/73 154/76/73 153/73/73
f 151/78/74 149/80/74 155/80/74 156/78/74
f 158/76/69 160/78/69 164/78/69 162/76/69
f 154/76/69 156/78/69 160/78/69 158/76/69
f 156/78/75 155/80/75 159/80/75 160/78/75
f 153/73/76 154/76/76 158/76/76 157/73/76
f 164/78/77 163/80/77 167/80/77 168/78/77
f 160/78/78 159/80/78 163/80/78 164/78/78
f 157/73/79 158/76/79 162/76/79 161/73/79
f 159/80/71 157/82/71 161/82/71 163/80/71
f 167/80/71 165/82/71 169/82/71 171/80/71
f 161/73/80 162/76/80 166/76/80 165/73/80
f 163/80/71 161/82/71 165/82/71 167/80/71
f 162/76/69 164/78/69 168/78/69 166/76/69
f 172/78/81 171/80/81 175/80/81 176/78/81
f 166/76/69 168/78/69 172/78/69 170/76/69
f 168/78/82 167/80/82 171/80/82 172/78/82
f 165/73/83 166/76/83 170/76/83 169/73/83
f 176/78/84 175/80/84 179/80/84 180/78/84
f 169/73/85 170/76/85 174/76/85 173/73/85
f 171/80/71 169/82/71 173/82/71 175/80/71
f 170/76/69 172/78/69 176/78/69 174/76/69
f 179/80/71 177/82/71 181/82/71 183/80/71
f 173/73/86 174/76/86 178/76/86 177/73/86
f 175/80/71 173/82/71 177/82/71 179/80/71
f 174/76/69 176/78/69 180/78/69 178/76/69
f 184/78/87 183/80/87 187/80/87 188/78/87
f 178/76/69 180/78/69 184/78/69 182/76/69
f 180/78/88 179/80/88 183/80/88 184/78/88
f 177/73/89 178/76/89 182/76/89 181/73/89
f 185/73/90 186/76/90 190/76/90 189/73/90
f 181/73/91 182/76/91 186/76/91 185/73/91
f 183/80/71 181/82/71 185/82/71 187/80/71
f 182/76/69 184/78/69 188/78/69 186/76/69
f 191/80/71 189/82/71 193/82/71 195/80/71
f 187/80/71 185/82/71 189/82/71 191/80/71
f 186/76/69 188/78/69 192/78/69 190/76/69
f 188/78/92 187/80/92 191/80/92 192/78/92
f 196/78/93 195/80/93 199/80/93 200/78/93
f 190/76/69 192/78/69 196/78/69 194/76/69
f 192/78/94 191/80/94 195/80/94 196/78/94
f 189/73/95 190/76/95 194/76/95 193/73/95
f 199/80/71 197/82/71 201/82/71 203/80/71
f 193/73/96 194/76/96 198/76/96 197/73/96
f 195/80/71 193/82/71 197/82/71 199/80/71
f 194/76/69 196/78/69 200/78/69 198/76/69
f 202/76/69 204/78/69 208/78/69 206/76/69
f 198/76/69 200/78/69 204/78/69 202/76/69
f 200/78/97 199/80/97 203/80/97 204/78/97
f 197/73/98 198/76/98 202/76/98 201/73/98
f 208/78/99 207/80/99 211/80/99 212/78/99
f 204/78/100 203/80/100 207/80/100 208/78/100
f 201/73/101 202/76/101 206/76/101 205/73/101
f 203/80/71 201/82/71 205/82/71 207/80/71
f 211/80/71 209/82/71 213/82/71 215/80/71
f 205/73/102 206/76/102 210/76/102 209/73/102
f 207/80/71 205/82/71 209/82/71 211/80/71
f 206/76/69 208/78/69 212/78/69 210/76/69
f 214/85/103 216/78/103 215/80/103 213/86/103
f 210/76/69 212/78/69 216/78/69 214/76/69
f 212/78/104 211/80/104 215/80/104 216/78/104
f 209/73/105 210/76/105 214/76/105 213/73/105
